<svg width="128" height="49" viewBox="0 0 128 49" fill="none" xmlns="http://www.w3.org/2000/svg">
<path d="M29 11V39H22.52V27.52H9.8V39H3.32V11H9.8V22.04H22.52V11H29ZM35.6247 11H42.1047V39H35.6247V11ZM58.9497 28L55.1897 31.92V39H48.7497V11H55.1897V24.08L67.5897 11H74.7897L63.1897 23.48L75.4697 39H67.9097L58.9497 28ZM100.039 33.8V39H78.3591V11H99.5191V16.2H84.7991V22.28H97.7991V27.32H84.7991V33.8H100.039ZM114.395 39.48C112.182 39.48 110.035 39.1867 107.955 38.6C105.902 37.9867 104.248 37.2 102.995 36.24L105.195 31.36C106.395 32.24 107.822 32.9467 109.475 33.48C111.128 34.0133 112.782 34.28 114.435 34.28C116.275 34.28 117.635 34.0133 118.515 33.48C119.395 32.92 119.835 32.1867 119.835 31.28C119.835 30.6133 119.568 30.0667 119.035 29.64C118.528 29.1867 117.862 28.8267 117.035 28.56C116.235 28.2933 115.142 28 113.755 27.68C111.622 27.1733 109.875 26.6667 108.515 26.16C107.155 25.6533 105.982 24.84 104.995 23.72C104.035 22.6 103.555 21.1067 103.555 19.24C103.555 17.6133 103.995 16.1467 104.875 14.84C105.755 13.5067 107.075 12.4533 108.835 11.68C110.622 10.9067 112.795 10.52 115.355 10.52C117.142 10.52 118.888 10.7333 120.595 11.16C122.302 11.5867 123.795 12.2 125.075 13L123.075 17.92C120.488 16.4533 117.902 15.72 115.315 15.72C113.502 15.72 112.155 16.0133 111.275 16.6C110.422 17.1867 109.995 17.96 109.995 18.92C109.995 19.88 110.488 20.6 111.475 21.08C112.488 21.5333 114.022 21.9867 116.075 22.44C118.208 22.9467 119.955 23.4533 121.315 23.96C122.675 24.4667 123.835 25.2667 124.795 26.36C125.782 27.4533 126.275 28.9333 126.275 30.8C126.275 32.4 125.822 33.8667 124.915 35.2C124.035 36.5067 122.702 37.5467 120.915 38.32C119.128 39.0933 116.955 39.48 114.395 39.48Z" fill="#F83463"/>
<line x1="3" y1="3" x2="49" y2="3" stroke="#B7FEFD" stroke-width="4" stroke-linecap="round"/>
</svg>
